#!OML:ASF E:\Steps\Project 1\Capture day 1\Session 2\Subject.ASF
:FULLY-SPECIFIED
:DEGREES
93
root 9.14339 16.2967 19.9092 -151.647 -2.05761 179.46
lowerback -30.3784 -1.61315 -5.19137
upperback -2.28252 -1.23303 0.102349
thorax 13.4544 -1.212 2.35893
lowerneck 1.44228 -1.53754 -2.97063
upperneck -15.6987 -2.12396 8.91533
head -4.78396 -1.84908 3.39719
rclavicle -4.62174e-015 2.78299e-014
rhumerus -37.3781 -22.8362 -76.3911
rradius 27.5967
rwrist 2.74007
rhand -8.52221 -49.9374
rfingers 7.12502
rthumb 17.4063 -79.178
lclavicle -4.62174e-015 2.78299e-014
lhumerus -30.079 4.66472 83.3725
lradius 25.2969
lwrist -4.8651
lhand -21.5883 -13.9368
lfingers 7.12502
lthumb 4.80631 15.9886
rfemur -24.3598 6.75258 19.3119
rtibia 5.48016
rfoot -17.8658 -6.55657
rtoes -30.5403
lfemur -26.6468 -9.71894 -18.4721
ltibia 8.92938
lfoot -7.84283 -1.08151
ltoes -18.5218
94
root 9.14131 16.2979 19.9093 -151.617 -2.07452 179.403
lowerback -30.3915 -1.64446 -5.24704
upperback -2.27905 -1.25457 0.105023
thorax 13.4662 -1.22517 2.38305
lowerneck 1.40106 -1.52288 -2.97682
upperneck -15.7206 -2.10841 8.91469
head -4.78454 -1.84299 3.39747
rclavicle 3.57812e-015 4.77083e-015
rhumerus -37.3259 -23.0279 -76.2581
rradius 27.3594
rwrist 2.80233
rhand -8.55622 -49.9397
rfingers 7.12502
rthumb 17.3736 -79.1832
lclavicle 3.57812e-015 4.77083e-015
lhumerus -30.1044 4.57496 83.3828
lradius 25.1487
lwrist -4.75369
lhand -21.6172 -13.5945
lfingers 7.12502
lthumb 4.77844 16.3316
rfemur -24.362 6.80855 19.2208
rtibia 5.41887
rfoot -17.7829 -6.70225
rtoes -30.9076
lfemur -26.6723 -9.73869 -18.5431
ltibia 8.88464
lfoot -7.85863 -1.05847
ltoes -19.2764
95
root 9.14012 16.2982 19.908 -151.625 -2.10008 179.34
lowerback -30.3174 -1.68246 -5.31676
upperback -2.28985 -1.28461 0.109466
thorax 13.424 -1.24123 2.4156
lowerneck 1.33408 -1.50728 -2.99034
upperneck -15.6707 -2.09068 8.89564
head -4.75909 -1.82933 3.39065
rclavicle -1.76918e-014 -2.22639e-014
rhumerus -37.3394 -23.2241 -76.0974
rradius 27.1435
rwrist 2.94381
rhand -8.37984 -49.6226
rfingers 7.12502
rthumb 17.5433 -78.8511
lclavicle -1.76918e-014 -2.22639e-014
lhumerus -30.155 4.5808 83.3609
lradius 25.0012
lwrist -4.81037
lhand -21.6186 -13.4708
lfingers 7.12502
lthumb 4.77705 16.4554
rfemur -24.3412 6.9568 19.1141
rtibia 5.44641
rfoot -17.7868 -6.9462
rtoes -31.2267
lfemur -26.6447 -9.76177 -18.6225
ltibia 8.83035
lfoot -7.83107 -1.06897
ltoes -20.1217
96
root 9.13909 16.297 19.9076 -151.598 -2.03644 179.36
lowerback -30.2682 -1.66839 -5.30093
upperback -2.3241 -1.28048 0.111465
thorax 13.3625 -1.23871 2.41194
lowerneck 1.29305 -1.48732 -3.00705
upperneck -15.5618 -2.06201 8.87698
head -4.7206 -1.80609 3.38282
rclavicle 8.44835e-015 4.37326e-015
rhumerus -37.455 -23.1686 -76.06
rradius 27.082
rwrist 2.96082
rhand -8.33281 -49.5426
rfingers 7.12502
rthumb 17.5886 -78.767
lclavicle 8.44835e-015 4.37326e-015
lhumerus -30.1978 4.71402 83.248
lradius 24.7516
lwrist -5.03417
lhand -21.7531 -13.5255
lfingers 7.12502
lthumb 4.64714 16.4035
rfemur -24.4199 7.02284 19.1091
rtibia 5.59355
rfoot -17.9605 -6.88601
rtoes -30.6278
lfemur -26.6762 -9.75145 -18.6107
ltibia 8.91322
lfoot -7.88895 -1.00532
ltoes -19.5187
97
root 9.13802 16.2955 19.9069 -151.535 -1.94952 179.391
lowerback -30.2894 -1.6523 -5.2876
upperback -2.3669 -1.2748 0.1202
thorax 13.3222 -1.23806 2.41554
lowerneck 1.29664 -1.47336 -3.02721
upperneck -15.4921 -2.03932 8.88271
head -4.7009 -1.78969 3.38525
rclavicle -1.49089e-016 3.57812e-015
rhumerus -37.6322 -22.9924 -76.0392
rradius 27.0548
rwrist 2.95358
rhand -8.49168 -49.2709
rfingers 7.12502
rthumb 17.4357 -78.509
lclavicle -1.49089e-016 3.57812e-015
lhumerus -30.2762 4.87422 83.125
lradius 24.4693
lwrist -5.26947
lhand -21.9324 -13.7671
lfingers 7.12502
lthumb 4.47402 16.1657
rfemur -24.4806 7.0343 19.1176
rtibia 5.61412
rfoot -18.0531 -6.76749
rtoes -30.3019
lfemur -26.7534 -9.70278 -18.5959
ltibia 8.98659
lfoot -7.9366 -0.934716
ltoes -18.7755
98
root 9.13848 16.296 19.9064 -151.535 -1.93236 179.385
lowerback -30.1861 -1.67376 -5.33838
upperback -2.41541 -1.30106 0.144872
thorax 13.2241 -1.25237 2.4619
lowerneck 1.26459 -1.47079 -3.0498
upperneck -15.4536 -2.03567 8.8976
head -4.68332 -1.78551 3.39204
rclavicle 6.31141e-015 1.94809e-014
rhumerus -37.8154 -22.9777 -75.9145
rradius 26.9811
rwrist 3.0147
rhand -8.57097 -48.8818
rfingers 7.12502
rthumb 17.3594 -78.1265
lclavicle 6.31141e-015 1.94809e-014
lhumerus -30.4207 4.91953 83.0894
lradius 24.3228
lwrist -5.27822
lhand -21.9867 -13.5199
lfingers 7.12502
lthumb 4.42163 16.4139
rfemur -24.4317 7.0945 19.0927
rtibia 5.48725
rfoot -17.9536 -6.87094
rtoes -30.7013
lfemur -26.7581 -9.68368 -18.6068
ltibia 8.93916
lfoot -7.8872 -0.922724
ltoes -18.9863
99
root 9.13818 16.2971 19.9062 -151.576 -1.94297 179.388
lowerback -30.0057 -1.67918 -5.35839
upperback -2.47608 -1.31857 0.156617
thorax 13.0769 -1.25903 2.48324
lowerneck 1.21386 -1.44825 -3.06566
upperneck -15.2369 -1.99852 8.86302
head -4.61108 -1.74974 3.37573
rclavicle 4.72114e-015 -5.96354e-015
rhumerus -37.9993 -23.0032 -75.7972
rradius 26.9185
rwrist 3.00673
rhand -8.43336 -48.7174
rfingers 7.12502
rthumb 17.4918 -77.9504
lclavicle 4.72114e-015 -5.96354e-015
lhumerus -30.5714 4.982 83.0213
lradius 24.1991
lwrist -5.25289
lhand -21.863 -13.3459
lfingers 7.12502
lthumb 4.54109 16.5854
rfemur -24.3925 7.12454 19.0998
rtibia 5.45435
rfoot -17.9263 -6.95112
rtoes -31.217
lfemur -26.7056 -9.69439 -18.607
ltibia 8.874
lfoot -7.85082 -0.935968
ltoes -18.8248
100
root 9.13631 16.2988 19.9056 -151.623 -1.99209 179.383
lowerback -29.8718 -1.69978 -5.3346
upperback -2.48881 -1.35759 0.155181
thorax 13.0063 -1.27223 2.45742
lowerneck 1.17671 -1.37848 -3.11972
upperneck -14.9114 -1.8951 8.77715
head -4.51249 -1.6682 3.34482
rclavicle 5.86415e-015 3.18055e-015
rhumerus -38.1159 -22.989 -75.759
rradius 26.9294
rwrist 2.98896
rhand -8.28852 -48.9132
rfingers 7.12502
rthumb 17.6312 -78.1338
lclavicle 5.86415e-015 3.18055e-015
lhumerus -30.6172 5.23666 82.8477
lradius 24.0138
lwrist -5.31848
lhand -21.6017 -13.777
lfingers 7.12502
lthumb 4.79339 16.1488
rfemur -24.3438 7.19521 19.0831
rtibia 5.52906
rfoot -18.0374 -7.05604
rtoes -31.2377
lfemur -26.6417 -9.75773 -18.6022
ltibia 8.83986
lfoot -7.80581 -0.973227
ltoes -18.7328
101
root 9.13495 16.2993 19.9038 -151.647 -2.03958 179.376
lowerback -29.8428 -1.74667 -5.34711
upperback -2.4456 -1.40886 0.183726
thorax 13.0485 -1.29412 2.47624
lowerneck 1.01643 -1.25511 -3.21779
upperneck -14.6158 -1.73519 8.61345
head -4.40653 -1.55396 3.29464
rclavicle -3.23025e-015 1.19271e-015
rhumerus -38.1352 -23.3371 -75.548
rradius 26.7962
rwrist 3.36898
rhand -8.16252 -48.9551
rfingers 7.12502
rthumb 17.7525 -78.1647
lclavicle -3.23025e-015 1.19271e-015
lhumerus -30.5815 5.45516 82.7485
lradius 23.8013
lwrist -5.29751
lhand -21.6137 -13.9863
lfingers 7.12502
lthumb 4.7818 15.9397
rfemur -24.2885 7.25998 19.0609
rtibia 5.54633
rfoot -18.0768 -7.1729
rtoes -31.0309
lfemur -26.6177 -9.79965 -18.5994
ltibia 8.85207
lfoot -7.76946 -1.01711
ltoes -18.6757
